<?xml version="1.0" encoding="UTF-8" standalone="no"?>
<!-- Generator: Adobe Illustrator 18.0.0, SVG Export Plug-In . SVG Version: 6.00 Build 0)  -->

<svg
   version="1.1"
   id="Capa_1"
   x="0px"
   y="0px"
   viewBox="0 0 294.331 294.331"
   style="enable-background:new 0 0 294.331 294.331;"
   xml:space="preserve"
   sodipodi:docname="bottle-white.svg"
   inkscape:version="1.2 (dc2aedaf03, 2022-05-15)"
   xmlns:inkscape="http://www.inkscape.org/namespaces/inkscape"
   xmlns:sodipodi="http://sodipodi.sourceforge.net/DTD/sodipodi-0.dtd"
   xmlns="http://www.w3.org/2000/svg"
   xmlns:svg="http://www.w3.org/2000/svg"><defs
   id="defs510" /><sodipodi:namedview
   id="namedview508"
   pagecolor="#ffffff"
   bordercolor="#666666"
   borderopacity="1.0"
   inkscape:showpageshadow="2"
   inkscape:pageopacity="0.0"
   inkscape:pagecheckerboard="0"
   inkscape:deskcolor="#d1d1d1"
   showgrid="false"
   inkscape:zoom="2.5753319"
   inkscape:cx="147.1655"
   inkscape:cy="116.29569"
   inkscape:window-width="2556"
   inkscape:window-height="1363"
   inkscape:window-x="0"
   inkscape:window-y="36"
   inkscape:window-maximized="1"
   inkscape:current-layer="g475" />
<g
   id="g475">
	<path
   d="M184.498,15.757C184.498,7.055,177.443,0,168.741,0h-43.152c-8.702,0-15.757,7.055-15.757,15.757v15.577h74.666V15.757z"
   id="path471"
   style="fill:#ffffff;fill-opacity:1" />
	<path
   d="M224.575,109.664h-24.118V96.958c0-4.261,2.367-8.173,6.14-10.155c6.043-3.175,10.166-9.502,10.166-16.805   c0-10.495-8.508-19.002-19.002-19.002H96.57c-10.494,0-19.002,8.507-19.002,19.002c0,7.303,4.123,13.63,10.166,16.805   c3.769,1.981,6.14,5.899,6.14,10.155v12.706H69.756c-8.702,0-15.757,7.055-15.757,15.757v153.153   c0,8.702,7.055,15.757,15.757,15.757h154.819c8.702,0,15.757-7.055,15.757-15.757V125.421   C240.332,116.719,233.277,109.664,224.575,109.664z M209.411,222.807c0,8.115-6.578,14.693-14.693,14.693H99.614   c-8.115,0-14.693-6.578-14.693-14.693v-44.281c0-8.115,6.578-14.693,14.693-14.693h95.104c8.115,0,14.693,6.578,14.693,14.693   V222.807z"
   id="path473"
   style="fill:#ffffff;fill-opacity:1" />
</g>
<g
   id="g477">
</g>
<g
   id="g479">
</g>
<g
   id="g481">
</g>
<g
   id="g483">
</g>
<g
   id="g485">
</g>
<g
   id="g487">
</g>
<g
   id="g489">
</g>
<g
   id="g491">
</g>
<g
   id="g493">
</g>
<g
   id="g495">
</g>
<g
   id="g497">
</g>
<g
   id="g499">
</g>
<g
   id="g501">
</g>
<g
   id="g503">
</g>
<g
   id="g505">
</g>
</svg>
