<?xml version="1.0" encoding="UTF-8" standalone="no"?>
<!-- Generator: Adobe Illustrator 19.0.0, SVG Export Plug-In . SVG Version: 6.00 Build 0)  -->

<svg
   version="1.1"
   id="Layer_1"
   x="0px"
   y="0px"
   viewBox="0 0 490.584 490.584"
   style="enable-background:new 0 0 490.584 490.584;"
   xml:space="preserve"
   sodipodi:docname="edit-white.svg"
   inkscape:version="1.2 (dc2aedaf03, 2022-05-15)"
   xmlns:inkscape="http://www.inkscape.org/namespaces/inkscape"
   xmlns:sodipodi="http://sodipodi.sourceforge.net/DTD/sodipodi-0.dtd"
   xmlns="http://www.w3.org/2000/svg"
   xmlns:svg="http://www.w3.org/2000/svg"><defs
   id="defs145" /><sodipodi:namedview
   id="namedview143"
   pagecolor="#ffffff"
   bordercolor="#666666"
   borderopacity="1.0"
   inkscape:showpageshadow="2"
   inkscape:pageopacity="0.0"
   inkscape:pagecheckerboard="0"
   inkscape:deskcolor="#d1d1d1"
   showgrid="false"
   inkscape:zoom="1.5450972"
   inkscape:cx="245.29201"
   inkscape:cy="245.61561"
   inkscape:window-width="2556"
   inkscape:window-height="1363"
   inkscape:window-x="0"
   inkscape:window-y="36"
   inkscape:window-maximized="1"
   inkscape:current-layer="Layer_1" />
<g
   id="g110"
   style="fill:#ffffff;fill-opacity:1">
	<g
   id="g108"
   style="fill:#ffffff;fill-opacity:1">
		<path
   d="M100.911,419.404l123.8-51c3.1-2.1,6.2-4.2,8.3-6.2l203.9-248.6c6.2-9.4,5.2-21.8-3.1-29.1l-96.8-80.1    c-8-5.9-20.3-6.8-28.1,3.1l-204.9,248.5c-2.1,3.1-3.1,6.2-4.2,9.4l-26,132.1C72.511,420.104,90.611,424.004,100.911,419.404z     M326.611,49.004l65.5,54.1l-177.7,217.1l-64.9-53.7L326.611,49.004z M133.411,306.904l44.4,36.8l-57.2,23.6L133.411,306.904z"
   id="path104"
   style="fill:#ffffff;fill-opacity:1" />
		<path
   d="M469.111,448.504h-349.5c0,0-72.5,3.4-75.2-15.2c0-1-1.8-5.6,7.6-17c7.3-9.4,6.2-21.8-2.1-29.1    c-9.4-7.3-21.8-6.2-29.1,2.1c-19.8,23.9-25,44.7-15.6,63.5c25.5,47.5,111.3,36.3,115.4,37.3h348.5c11.4,0,20.8-9.4,20.8-20.8    C490.011,457.804,480.611,448.504,469.111,448.504z"
   id="path106"
   style="fill:#ffffff;fill-opacity:1" />
	</g>
</g>
<g
   id="g112">
</g>
<g
   id="g114">
</g>
<g
   id="g116">
</g>
<g
   id="g118">
</g>
<g
   id="g120">
</g>
<g
   id="g122">
</g>
<g
   id="g124">
</g>
<g
   id="g126">
</g>
<g
   id="g128">
</g>
<g
   id="g130">
</g>
<g
   id="g132">
</g>
<g
   id="g134">
</g>
<g
   id="g136">
</g>
<g
   id="g138">
</g>
<g
   id="g140">
</g>
</svg>
