<?xml version="1.0" encoding="UTF-8" standalone="no"?>
<!-- Generator: Adobe Illustrator 18.1.1, SVG Export Plug-In . SVG Version: 6.00 Build 0)  -->

<svg
   version="1.1"
   id="Capa_1"
   x="0px"
   y="0px"
   viewBox="0 0 26.39 26.39"
   style="enable-background:new 0 0 26.39 26.39;"
   xml:space="preserve"
   sodipodi:docname="home-white.svg"
   inkscape:version="1.2 (dc2aedaf03, 2022-05-15)"
   xmlns:inkscape="http://www.inkscape.org/namespaces/inkscape"
   xmlns:sodipodi="http://sodipodi.sourceforge.net/DTD/sodipodi-0.dtd"
   xmlns="http://www.w3.org/2000/svg"
   xmlns:svg="http://www.w3.org/2000/svg"><defs
   id="defs2319" /><sodipodi:namedview
   id="namedview2317"
   pagecolor="#ffffff"
   bordercolor="#666666"
   borderopacity="1.0"
   inkscape:showpageshadow="2"
   inkscape:pageopacity="0.0"
   inkscape:pagecheckerboard="0"
   inkscape:deskcolor="#d1d1d1"
   showgrid="false"
   inkscape:zoom="28.723002"
   inkscape:cx="13.195"
   inkscape:cy="13.212407"
   inkscape:window-width="2556"
   inkscape:window-height="1363"
   inkscape:window-x="0"
   inkscape:window-y="36"
   inkscape:window-maximized="1"
   inkscape:current-layer="Capa_1" />
<g
   id="g2284"
   style="fill:#ffffff;fill-opacity:1">
	<g
   id="c14_house"
   style="fill:#ffffff;fill-opacity:1">
		<path
   d="M3.588,24.297c0,0-0.024,0.59,0.553,0.59c0.718,0,6.652-0.008,6.652-0.008l0.01-5.451c0,0-0.094-0.898,0.777-0.898h2.761    c1.031,0,0.968,0.898,0.968,0.898l-0.012,5.434c0,0,5.628,0,6.512,0c0.732,0,0.699-0.734,0.699-0.734V14.076L13.33,5.913    l-9.742,8.164C3.588,14.077,3.588,24.297,3.588,24.297z"
   id="path2276"
   style="fill:#ffffff;fill-opacity:1" />
		<path
   d="M0,13.317c0,0,0.826,1.524,2.631,0l10.781-9.121l10.107,9.064c2.088,1.506,2.871,0,2.871,0L13.412,1.504L0,13.317z"
   id="path2278"
   style="fill:#ffffff;fill-opacity:1" />
		<polygon
   points="23.273,4.175 20.674,4.175 20.685,7.328 23.273,9.525   "
   id="polygon2280"
   style="fill:#ffffff;fill-opacity:1" />
	</g>
	<g
   id="Capa_1_216_"
   style="fill:#ffffff;fill-opacity:1">
	</g>
</g>
<g
   id="g2286">
</g>
<g
   id="g2288">
</g>
<g
   id="g2290">
</g>
<g
   id="g2292">
</g>
<g
   id="g2294">
</g>
<g
   id="g2296">
</g>
<g
   id="g2298">
</g>
<g
   id="g2300">
</g>
<g
   id="g2302">
</g>
<g
   id="g2304">
</g>
<g
   id="g2306">
</g>
<g
   id="g2308">
</g>
<g
   id="g2310">
</g>
<g
   id="g2312">
</g>
<g
   id="g2314">
</g>
</svg>
