<?xml version="1.0" encoding="UTF-8" standalone="no"?>
<!-- Generator: Adobe Illustrator 17.1.0, SVG Export Plug-In . SVG Version: 6.00 Build 0)  -->

<svg
   version="1.1"
   id="Capa_1"
   x="0px"
   y="0px"
   viewBox="0 0 279 279"
   style="enable-background:new 0 0 279 279;"
   xml:space="preserve"
   sodipodi:docname="note-white.svg"
   inkscape:version="1.2 (dc2aedaf03, 2022-05-15)"
   xmlns:inkscape="http://www.inkscape.org/namespaces/inkscape"
   xmlns:sodipodi="http://sodipodi.sourceforge.net/DTD/sodipodi-0.dtd"
   xmlns="http://www.w3.org/2000/svg"
   xmlns:svg="http://www.w3.org/2000/svg"><defs
   id="defs1136" /><sodipodi:namedview
   id="namedview1134"
   pagecolor="#ffffff"
   bordercolor="#666666"
   borderopacity="1.0"
   inkscape:showpageshadow="2"
   inkscape:pageopacity="0.0"
   inkscape:pagecheckerboard="0"
   inkscape:deskcolor="#d1d1d1"
   showgrid="false"
   inkscape:zoom="2.7168459"
   inkscape:cx="139.5"
   inkscape:cy="139.68404"
   inkscape:window-width="2556"
   inkscape:window-height="1363"
   inkscape:window-x="0"
   inkscape:window-y="36"
   inkscape:window-maximized="1"
   inkscape:current-layer="Capa_1" />
<path
   d="M262.427,7.5c0-4.143-3.024-7.5-7.167-7.5h-231c-4.143,0-7.833,3.357-7.833,7.5v264c0,4.143,3.69,7.5,7.833,7.5h132.498  c2.002,0,3.921-0.801,5.33-2.224l49.07-49.567l49.405-49.405c1.455-1.456,2.032-3.41,2.01-5.391  c0.008-0.137-0.146-0.274-0.146-0.413V7.5z M237.153,180l-73.727,73.394V180H237.153z M82.01,40h115.5c4.556,0,8.25,3.944,8.25,8.5  s-3.694,8.5-8.25,8.5H82.01c-4.556,0-8.25-3.944-8.25-8.5S77.453,40,82.01,40z M82.01,81h115.5c4.556,0,8.25,3.944,8.25,8.5  s-3.694,8.5-8.25,8.5H82.01c-4.556,0-8.25-3.944-8.25-8.5S77.453,81,82.01,81z M73.76,131c0-4.556,3.694-8,8.25-8h115.5  c4.556,0,8.25,3.444,8.25,8s-3.694,8-8.25,8H82.01C77.453,139,73.76,135.556,73.76,131z"
   id="path1101"
   style="fill:#ffffff;fill-opacity:1" />
<g
   id="g1103">
</g>
<g
   id="g1105">
</g>
<g
   id="g1107">
</g>
<g
   id="g1109">
</g>
<g
   id="g1111">
</g>
<g
   id="g1113">
</g>
<g
   id="g1115">
</g>
<g
   id="g1117">
</g>
<g
   id="g1119">
</g>
<g
   id="g1121">
</g>
<g
   id="g1123">
</g>
<g
   id="g1125">
</g>
<g
   id="g1127">
</g>
<g
   id="g1129">
</g>
<g
   id="g1131">
</g>
</svg>
