<?xml version="1.0" encoding="UTF-8" standalone="no"?>
<!-- Generator: Adobe Illustrator 16.0.0, SVG Export Plug-In . SVG Version: 6.00 Build 0)  -->

<svg
   version="1.1"
   id="Capa_1"
   x="0px"
   y="0px"
   width="612px"
   height="612px"
   viewBox="0 0 612 612"
   style="enable-background:new 0 0 612 612;"
   xml:space="preserve"
   sodipodi:docname="storage-white.svg"
   inkscape:version="1.2 (dc2aedaf03, 2022-05-15)"
   xmlns:inkscape="http://www.inkscape.org/namespaces/inkscape"
   xmlns:sodipodi="http://sodipodi.sourceforge.net/DTD/sodipodi-0.dtd"
   xmlns:xlink="http://www.w3.org/1999/xlink"
   xmlns="http://www.w3.org/2000/svg"
   xmlns:svg="http://www.w3.org/2000/svg"><defs
   id="defs3602"><linearGradient
     inkscape:collect="always"
     id="linearGradient4241"><stop
       style="stop-color:#ffffff;stop-opacity:1;"
       offset="0"
       id="stop4237" /><stop
       style="stop-color:#000000;stop-opacity:0;"
       offset="1"
       id="stop4239" /></linearGradient><linearGradient
     inkscape:collect="always"
     xlink:href="#linearGradient4241"
     id="linearGradient4243"
     x1="21.608"
     y1="306"
     x2="590.392"
     y2="306"
     gradientUnits="userSpaceOnUse" /></defs><sodipodi:namedview
   id="namedview3600"
   pagecolor="#ffffff"
   bordercolor="#666666"
   borderopacity="1.0"
   inkscape:showpageshadow="2"
   inkscape:pageopacity="0.0"
   inkscape:pagecheckerboard="0"
   inkscape:deskcolor="#d1d1d1"
   showgrid="false"
   inkscape:zoom="1.2385621"
   inkscape:cx="306"
   inkscape:cy="306.40369"
   inkscape:window-width="2556"
   inkscape:window-height="1363"
   inkscape:window-x="0"
   inkscape:window-y="36"
   inkscape:window-maximized="1"
   inkscape:current-layer="Capa_1" />
<g
   id="g3567"
   style="fill-opacity:1;fill:#ffffff">
	<path
   d="M392.287,76.331H376.69l4.537-15.378c1.438-4.978,3.209-13.608,3.209-13.608h0.223c0,0,1.77,8.63,3.203,13.608   L392.287,76.331z M315.437,55.426c0-5.972-2.215-9.511-11.948-9.511h-6.525v19.24h8.408   C311.566,65.155,315.437,61.729,315.437,55.426z M222.363,92.031c11.838,0,21.35-10.174,21.35-23.668   c0-12.937-9.511-22.675-21.35-22.675c-11.834,0-21.345,9.738-21.345,22.675C201.018,81.857,210.529,92.031,222.363,92.031z    M515.252,138.143v35.48h21.578c29.581,0,53.561,23.98,53.561,53.561V612H487.02V296.46H118.843V612H21.608V227.185   c0-29.581,23.979-53.561,53.561-53.561h21.578v-35.48H48.388c-14.791,0-26.78-11.99-26.78-26.781V26.78   C21.608,11.99,33.598,0,48.388,0h515.224c14.79,0,26.78,11.99,26.78,26.78v84.582c0,14.791-11.99,26.78-26.78,26.78   L515.252,138.143L515.252,138.143z M516.084,108.403h51.099v-16.59h-31.746V76.879h24.113V60.291h-24.113V45.915h30.198V29.316   h-49.551V108.403z M347.496,108.403h19.906l4.756-16.59h24.666l4.865,16.59h19.91l-26.876-79.086h-20.351L347.496,108.403z    M277.606,108.403h19.358V81.744h9.07l14.044,26.659h21.571L326.277,80.75c-1.883-3.312-2.99-4.751-2.99-4.751v-0.227   c7.854-3.984,11.838-13.163,11.838-21.567c0-11.499-5.645-19.58-14.603-23.006c-3.43-1.325-7.301-1.883-15.373-1.883h-27.543   L277.606,108.403L277.606,108.403z M180.998,68.363c0,23.232,17.474,41.365,41.365,41.365s41.37-18.133,41.37-41.365   c0-22.675-17.479-40.372-41.37-40.372S180.998,45.688,180.998,68.363z M103.176,85.179c0-25.001-35.615-23.232-35.615-33.188   c0-4.42,4.424-6.189,8.408-6.189c9.511,0,17.474,6.965,17.474,6.965l8.186-15.813c0,0-8.408-8.962-25.442-8.962   c-15.705,0-27.979,9.625-27.979,24.226c0,24.331,35.612,24,35.612,33.397c0,4.76-4.311,6.311-8.295,6.311   c-9.956,0-18.913-8.185-18.913-8.185L46.437,98.446c0,0,10.282,11.281,28.868,11.281C93.111,109.728,103.176,98.334,103.176,85.179   z M152.709,45.915h24V29.316h-67.36v16.599h24.004v62.488h19.357L152.709,45.915L152.709,45.915z M451.572,138.143H160.427v35.48   h291.145V138.143z M499.831,63.716h-28.314v16.485h11.171v6.076c0,0-6.747,5.754-16.041,5.754c-12.273,0-22.674-8.953-22.674-24   c0-11.725,6.747-22.343,23.337-22.343c11.171,0,19.248,7.305,19.248,7.305l9.289-14.488c0,0-10.174-10.514-30.416-10.514   c-24.113,0-41.474,17.697-41.474,40.703c0,25.882,18.577,41.034,38.819,41.034c13.163,0,20.796-6.852,20.796-6.852h0.218   c0,0-0.108,1.656-0.108,3.312v2.214h16.148L499.831,63.716L499.831,63.716z M465.335,603.073v-16.18   c0-4.931-3.996-8.927-8.927-8.927H155.59c-4.93,0-8.927,3.996-8.927,8.927v16.18c0,4.931,3.997,8.927,8.927,8.927H456.41   C461.339,612,465.335,608.004,465.335,603.073z M465.335,357.586v-16.18c0-4.93-3.996-8.927-8.927-8.927H155.59   c-4.93,0-8.927,3.997-8.927,8.927v16.18c0,4.931,3.997,8.927,8.927,8.927H456.41C461.339,366.513,465.335,362.516,465.335,357.586z    M465.335,418.958v-16.181c0-4.93-3.996-8.927-8.927-8.927H155.59c-4.93,0-8.927,3.997-8.927,8.927v16.181   c0,4.93,3.997,8.927,8.927,8.927H456.41C461.339,427.885,465.335,423.888,465.335,418.958z M465.335,480.33v-16.18   c0-4.931-3.996-8.927-8.927-8.927H155.59c-4.93,0-8.927,3.996-8.927,8.927v16.18c0,4.93,3.997,8.927,8.927,8.927H456.41   C461.339,489.257,465.335,485.26,465.335,480.33z M465.335,541.701v-16.18c0-4.931-3.996-8.927-8.927-8.927H155.59   c-4.93,0-8.927,3.996-8.927,8.927v16.18c0,4.931,3.997,8.927,8.927,8.927H456.41C461.339,550.628,465.335,546.632,465.335,541.701z   "
   id="path3565"
   style="fill-opacity:1;fill:#ffffff" />
</g>
<g
   id="g3569">
</g>
<g
   id="g3571">
</g>
<g
   id="g3573">
</g>
<g
   id="g3575">
</g>
<g
   id="g3577">
</g>
<g
   id="g3579">
</g>
<g
   id="g3581">
</g>
<g
   id="g3583">
</g>
<g
   id="g3585">
</g>
<g
   id="g3587">
</g>
<g
   id="g3589">
</g>
<g
   id="g3591">
</g>
<g
   id="g3593">
</g>
<g
   id="g3595">
</g>
<g
   id="g3597">
</g>
<path
   style="opacity:0.63;fill:#000000;stroke-width:0.305154;paint-order:stroke fill markers;fill-opacity:1"
   d="m 63.969461,107.78891 c -6.713678,-1.87584 -16.361216,-7.51261 -16.307915,-9.528225 0.01411,-0.533746 2.036996,-3.806318 4.495292,-7.272384 l 4.469628,-6.301935 2.569353,1.717083 c 5.150391,3.441976 9.86524,5.15234 15.083864,5.471842 4.458686,0.272976 5.581971,0.058 7.468338,-1.429263 2.633988,-2.076714 3.044685,-6.297743 0.807388,-8.298104 -0.777111,-0.694812 -6.347387,-3.603326 -12.378392,-6.463363 -16.755432,-7.9458 -21.23349,-12.925348 -21.230482,-23.608044 0.0013,-4.527469 0.426776,-6.476887 2.139045,-9.799954 6.8261,-13.247675 26.277683,-17.830898 42.290926,-9.964677 8.373924,4.113539 8.195054,3.569825 3.953004,12.01625 -2.028797,4.039578 -3.874529,7.344687 -4.101625,7.344687 -0.227096,0 -1.767579,-0.887936 -3.423296,-1.973191 -4.218778,-2.765239 -12.194084,-4.836087 -15.927496,-4.135694 -3.396598,0.637206 -6.8639,3.64957 -6.8639,5.963303 0,3.196963 3.195097,5.639491 12.371853,9.457801 16.767781,6.976821 22.363504,12.471235 23.007904,22.591346 0.6277,9.857811 -4.354748,18.314352 -13.397025,22.738332 -3.964185,1.93949 -5.726534,2.28087 -12.687647,2.45768 -5.2494,0.13333 -9.575926,-0.21153 -12.338817,-0.98349 z"
   id="path3790" /><path
   style="opacity:0.63;fill:#000000;stroke-width:0.305154;paint-order:stroke fill markers;fill-opacity:1"
   d="M 134.02639,76.701847 V 45.21372 h -12.11082 -12.11082 v -7.670184 -7.670185 h 33.1029 33.1029 v 7.670185 7.670184 h -11.70712 -11.70712 v 31.488127 31.488123 h -9.28496 -9.28496 z"
   id="path3792" /><path
   style="opacity:0.63;fill:#000000;stroke-width:0.305154;paint-order:stroke fill markers;fill-opacity:1"
   d="m 210.81271,107.71966 c -13.65456,-3.67192 -25.03413,-15.755311 -28.3557,-30.109478 -1.41893,-6.131904 -0.6347,-17.876629 1.5823,-23.696669 6.7983,-17.846839 26.67742,-28.45695 46.13486,-24.623626 8.56446,1.687292 15.86546,5.389641 21.25352,10.777707 21.88071,21.880703 11.69599,59.800165 -18.19871,67.756926 -5.50899,1.46627 -16.76966,1.4136 -22.41627,-0.10486 z m 19.56787,-16.886802 c 4.26609,-1.782488 8.425,-5.772477 10.86644,-10.425085 1.89361,-3.608608 2.15797,-5.044708 2.16847,-11.779805 0.0103,-6.596708 -0.2696,-8.221488 -1.99976,-11.609355 -3.55486,-6.960809 -11.34336,-11.804893 -18.98037,-11.804893 -7.84575,0 -15.77904,5.087618 -19.36622,12.419566 -2.54319,5.198074 -2.89616,13.620652 -0.83134,19.83724 1.62804,4.901575 6.56174,10.61836 11.10443,12.86695 4.17212,2.065162 12.68871,2.312778 17.03835,0.495382 z"
   id="path3794" /><path
   style="opacity:0.63;fill:#000000;stroke-width:0.305154;paint-order:stroke fill markers;fill-opacity:1"
   d="M 277.74142,68.969543 V 29.749112 l 19.98285,0.27668 c 22.26048,0.308216 23.17567,0.49513 29.23712,5.971286 6.13489,5.542504 8.62577,13.374959 7.16773,22.538542 -0.91905,5.77613 -3.44026,10.367686 -7.91036,14.406156 l -3.28485,2.967661 8.89918,15.938422 8.89917,15.938421 -9.83148,0.22778 c -5.40732,0.12529 -10.09374,-0.0564 -10.41427,-0.40369 -0.32052,-0.34731 -3.61643,-6.35384 -7.32423,-13.347837 l -6.74146,-12.716359 h -5.05474 -5.05473 v 13.3219 13.321896 h -9.28496 -9.28497 z m 35.25163,-6.159381 c 1.75402,-1.754709 2.25108,-3.116156 2.52616,-6.919047 0.29667,-4.101471 0.088,-5.024199 -1.56067,-6.901307 -2.03797,-2.320342 -7.48307,-3.776088 -14.12415,-3.776088 h -3.52304 v 10.172682 10.172682 l 7.249,-0.282181 c 6.61471,-0.257489 7.44008,-0.473332 9.4327,-2.466741 z"
   id="path3796" /><path
   style="opacity:0.63;fill:#000000;stroke-width:0.305154;paint-order:stroke fill markers;fill-opacity:1"
   d="m 360.08104,72.866755 c 6.60688,-19.427771 12.61691,-37.049011 13.35562,-39.158312 l 1.3431,-3.835092 9.81461,2.42e-4 9.8146,2.43e-4 13.12005,38.553095 c 7.21603,21.204203 13.12006,38.825329 13.12006,39.158069 0,0.33274 -4.15625,0.60497 -9.2361,0.60497 h -9.23611 l -2.11605,-7.06464 c -1.16383,-3.885554 -2.30027,-7.700462 -2.52543,-8.477573 -0.36748,-1.268312 -1.70757,-1.412929 -13.09303,-1.412929 H 371.7587 l -2.32161,8.477573 -2.32162,8.477569 h -9.52347 -9.52347 z m 32.30946,3.04015 c 0,-0.437217 -1.40445,-5.796254 -3.121,-11.908971 -1.71655,-6.112716 -3.36987,-12.486592 -3.67404,-14.164171 -0.67561,-3.726167 -1.70033,-3.320478 -2.3821,0.943081 -0.40404,2.526712 -4.22474,16.618326 -6.64604,24.512074 -0.39286,1.280781 0.32682,1.412929 7.69489,1.412929 4.79576,0 8.12829,-0.325919 8.12829,-0.794942 z"
   id="path3798" /><path
   style="opacity:0.63;fill:#000000;stroke-width:0.305154;paint-order:stroke fill markers;fill-opacity:1"
   d="m 451.13762,107.47344 c -12.86259,-4.23376 -22.91161,-15.590236 -25.70595,-29.050473 -1.38075,-6.651049 -0.56752,-18.916637 1.63035,-24.589757 4.14899,-10.709321 14.0025,-19.793554 25.30905,-23.333137 7.96243,-2.492684 19.61918,-2.499187 27.62101,-0.01541 5.28343,1.639982 14.96239,6.915787 14.91587,8.130337 -0.0115,0.298821 -1.92759,3.505097 -4.25809,7.12506 -4.02173,6.246929 -4.31845,6.519571 -5.83275,5.359497 -0.87751,-0.672238 -3.53299,-2.098608 -5.90106,-3.169711 -11.76462,-5.321258 -26.582,-1.987588 -31.96081,7.190664 -5.61755,9.58563 -3.93237,23.7215 3.69828,31.022463 6.75291,6.46114 17.84598,7.897248 27.11825,3.510726 l 5.04617,-2.387243 v -3.667529 -3.66753 h -5.65171 -5.65172 V 71.85752 63.783641 h 14.12929 14.12929 v 22.203166 22.203163 h -7.67019 -7.67018 v -2.89314 c 0,-1.59122 -0.2725,-2.77203 -0.60554,-2.62401 -0.33305,0.14802 -3.12778,1.53417 -6.21051,3.08034 -5.13461,2.57528 -6.28646,2.82941 -13.7256,3.02819 -6.23683,0.16666 -9.19533,-0.13674 -12.75345,-1.30791 z"
   id="path3800" /><path
   style="opacity:0.63;fill:#000000;stroke-width:0.305154;paint-order:stroke fill markers;fill-opacity:1"
   d="M 516.72823,69.031662 V 29.873351 h 24.22164 24.22163 v 7.670185 7.670184 h -14.93667 -14.93668 v 7.670185 7.670185 h 12.11082 12.11082 v 8.073878 8.073879 h -12.11082 -12.11082 v 7.670185 7.670184 h 15.74407 15.74406 v 8.073874 8.07388 h -25.02902 -25.02903 z"
   id="path3802" /></svg>
